# Blender v2.83.1 OBJ File: 'middle_wall.blend'
# www.blender.org
mtllib middle_wall.mtl
o Cube.001
v -2.500000 -0.500000 2.500000
v -2.500000 0.000000 2.500000
v -2.500000 -0.500000 -2.500000
v -2.500000 0.000000 -2.500000
v 2.500000 -0.500000 2.500000
v 2.500000 0.000000 2.500000
v 2.500000 -0.500000 -2.500000
v 2.500000 0.000000 -2.500000
v -2.500000 5.000000 2.500000
v -2.500000 5.500000 2.500000
v -2.500000 5.000000 -2.500000
v -2.500000 5.500000 -2.500000
v 2.500000 5.000000 2.500000
v 2.500000 5.500000 2.500000
v 2.500000 5.000000 -2.500000
v 2.500000 5.500000 -2.500000
v -2.500000 5.000000 -2.000000
v -2.500000 5.500000 -2.000000
v 2.500000 5.000000 -2.000000
v 2.500000 5.500000 -2.000000
v -2.500000 -0.500000 -2.000000
v -2.500000 0.000000 -2.000000
v 2.500000 -0.500000 -2.000000
v 2.500000 0.000000 -2.000000
vt 0.375000 0.125000
vt 0.625000 0.125000
vt 0.625000 0.250000
vt 0.375000 0.250000
vt 0.625000 0.500000
vt 0.375000 0.500000
vt 0.375000 0.625000
vt 0.625000 0.625000
vt 0.625000 0.750000
vt 0.375000 0.750000
vt 0.625000 1.000000
vt 0.375000 1.000000
vt 0.125000 0.625000
vt 0.125000 0.750000
vt 0.875000 0.625000
vt 0.875000 0.750000
vt 0.375000 0.125000
vt 0.625000 0.125000
vt 0.625000 0.250000
vt 0.375000 0.250000
vt 0.625000 0.500000
vt 0.375000 0.500000
vt 0.375000 0.625000
vt 0.625000 0.625000
vt 0.625000 0.750000
vt 0.375000 0.750000
vt 0.625000 1.000000
vt 0.375000 1.000000
vt 0.125000 0.625000
vt 0.125000 0.750000
vt 0.875000 0.625000
vt 0.875000 0.750000
vt 0.875000 0.500000
vt 0.375000 0.000000
vt 0.625000 0.000000
vt 0.125000 0.500000
vt 0.375000 0.000000
vt 0.625000 0.000000
vn -1.0000 0.0000 0.0000
vn 0.0000 0.0000 -1.0000
vn 1.0000 0.0000 0.0000
vn 0.0000 0.0000 1.0000
vn 0.0000 -1.0000 0.0000
vn 0.0000 1.0000 0.0000
usemtl None
s off
f 21/1/1 22/2/1 4/3/1 3/4/1
f 3/4/2 4/3/2 8/5/2 7/6/2
f 23/7/3 24/8/3 6/9/3 5/10/3
f 5/10/4 6/9/4 2/11/4 1/12/4
f 21/13/5 23/7/5 5/10/5 1/14/5
f 24/8/6 22/15/6 2/16/6 6/9/6
f 17/17/1 18/18/1 12/19/1 11/20/1
f 11/20/2 12/19/2 16/21/2 15/22/2
f 19/23/3 20/24/3 14/25/3 13/26/3
f 13/26/4 14/25/4 10/27/4 9/28/4
f 17/29/5 19/23/5 13/26/5 9/30/5
f 20/24/6 18/31/6 10/32/6 14/25/6
f 16/21/6 12/33/6 18/31/6 20/24/6
f 15/22/3 16/21/3 20/24/3 19/23/3
f 9/34/1 10/35/1 18/18/1 17/17/1
f 3/36/5 7/6/5 23/7/5 21/13/5
f 7/6/3 8/5/3 24/8/3 23/7/3
f 1/37/1 2/38/1 22/2/1 21/1/1
f 19/23/3 24/8/3 8/5/3 15/22/3
f 4/3/2 11/20/2 15/22/2 8/5/2
f 22/2/1 17/17/1 11/20/1 4/3/1
f 19/23/4 17/17/4 22/15/4 24/8/4
